<?xml version="1.0" encoding="utf-8"?>
<!-- Generated by IcoMoon.io -->
<!DOCTYPE svg PUBLIC "-//W3C//DTD SVG 1.1//EN" "http://www.w3.org/Graphics/SVG/1.1/DTD/svg11.dtd">
<svg version="1.1" xmlns="http://www.w3.org/2000/svg" xmlns:xlink="http://www.w3.org/1999/xlink" width="1024" height="1024" viewBox="0 0 1024 1024">
	<path d="M832 0h-128v128h128v-128zM960 0h-64v192h-256v-192h-256v192h-256v-192h-64c-35.376 0-64 28.656-64 64v896c0 35.376 28.624 64 64 64h896c35.376 0 64-28.624 64-64v-896c0-35.344-28.624-64-64-64zM896 896h-768v-576h768v576zM320 0h-128v128h128v-128zM576 448h-128v128h128v-128zM768 448h-128v128h128v-128zM384 640h-128v128h128v-128zM384 448h-128v128h128v-128zM576 640h-128v128h128v-128zM768 640h-128v128h128v-128z"></path>
</svg>
