<?xml version="1.0" encoding="utf-8"?>
<!-- Generated by IcoMoon.io -->
<!DOCTYPE svg PUBLIC "-//W3C//DTD SVG 1.1//EN" "http://www.w3.org/Graphics/SVG/1.1/DTD/svg11.dtd">
<svg version="1.1" xmlns="http://www.w3.org/2000/svg" xmlns:xlink="http://www.w3.org/1999/xlink" width="1024" height="1024" viewBox="0 0 1024 1024">
	<path d="M763.688 490.812c2.374-13.936 4.312-28.124 4.312-42.812v-192c0-141.376-114.624-256-256-256s-256 114.624-256 256v192c0 14.688 1.938 28.876 4.312 42.812-154.874 55-260.312 157.938-260.312 277.188v192c0 35.376 28.624 64 64 64h896c35.376 0 64-28.624 64-64v-192c0-119.25-105.438-222.188-260.312-277.188zM384 256c0-70.688 57.312-128 128-128s128 57.312 128 128v192c0 70.688-57.312 128-128 128s-128-57.312-128-128v-192zM896 896h-768v-128c0-69.124 73.624-129.188 183.188-163 46.874 59.876 118.936 99 200.812 99s153.938-39.124 200.812-99c109.564 33.812 183.188 93.876 183.188 163v128z"></path>
</svg>
